<svg xmlns:svg="http://www.w3.org/2000/svg" xmlns="http://www.w3.org/2000/svg" width="800" height="800"><path d="M93.7 86.1C93.7 86.1 183.9 86.1 183.9 86.1 204.7 86.1 227 85.6 245.6 95.8 263.3 105.4 278.5 125.5 282.1 145.4 284 156.8 282.1 169.5 282.4 180.8 282.9 200 283.2 219.2 283.2 238.4 283.2 322.1 284.9 405.6 284.9 489 284.9 537.9 288.1 590.4 330.5 622.6 355.2 641.2 391.7 646.4 421.7 647.7 467.7 649.6 522.5 644.5 554.7 607.7 582.1 576.6 582.7 532.6 584.5 493.5 587.6 420.4 585.2 347 585.2 273.8 585.2 273.8 584.3 234.9 584.3 234.9 584.3 227.2 585.2 218.5 580.2 212 571.5 201 552.8 203 540.6 199 536.2 197.7 528.6 194 531.9 188.1 534 184.2 539.5 184.5 543.2 184.4 543.2 184.4 570.9 183.5 570.9 183.5 570.9 183.5 655 183.5 655 183.5 668.4 183.5 685 181.3 697.9 185.1 704.6 187 702.6 194.3 697.9 197.4 685.6 205.2 671.8 202.4 661.4 214.5 656.7 219.9 658.5 229.1 658.5 235.7 658.5 235.7 658.5 288 658.5 288 658.5 351.9 658.5 415.7 657.8 479.3 656.9 541.9 655.5 606.1 605.8 652 574.1 681.4 536.4 693.8 494.1 700.3 458.5 705.7 422.9 705.9 386.8 704.4 315.2 701.3 239.1 694.8 193.3 631.6 184.8 620 178 607.1 172.8 593.5 163.8 569.9 162.8 545 161.6 520 160.4 493 159.8 465.7 159.8 438.5 159.8 438.5 159.8 249 159.8 249 159.8 210.3 161.6 170.8 157.9 132.1 157.4 126.1 156.8 118.1 151.8 114 134.8 99.8 93.8 115.3 93.7 86.1" transform="translate(700, 100) scale(-0.75, 0.75) " style="fill-opacity:1;fill:#F8981C"/></svg>